<?xml version="1.0" encoding="UTF-8" standalone="no"?>
<svg
   xmlns:dc="http://purl.org/dc/elements/1.1/"
   xmlns:cc="http://creativecommons.org/ns#"
   xmlns:rdf="http://www.w3.org/1999/02/22-rdf-syntax-ns#"
   xmlns:svg="http://www.w3.org/2000/svg"
   xmlns="http://www.w3.org/2000/svg"
   xmlns:sodipodi="http://sodipodi.sourceforge.net/DTD/sodipodi-0.dtd"
   xmlns:inkscape="http://www.inkscape.org/namespaces/inkscape"
   width="16"
   height="16"
   viewBox="0 0 4.2333332 4.2333335"
   version="1.1"
   id="svg8"
   inkscape:version="1.0.2 (e86c870879, 2021-01-15)"
   sodipodi:docname="nm-device-wired.svg">
  <defs
     id="defs2" />
  <sodipodi:namedview
     id="base"
     pagecolor="#ffffff"
     bordercolor="#666666"
     borderopacity="1.0"
     inkscape:pageopacity="0.0"
     inkscape:pageshadow="2"
     inkscape:zoom="31.678384"
     inkscape:cx="13.181716"
     inkscape:cy="7.6244892"
     inkscape:document-units="mm"
     inkscape:current-layer="layer1"
     inkscape:document-rotation="0"
     showgrid="true"
     units="px"
     inkscape:window-width="1507"
     inkscape:window-height="1056"
     inkscape:window-x="0"
     inkscape:window-y="24"
     inkscape:window-maximized="0" />
  <metadata
     id="metadata5">
    <rdf:RDF>
      <cc:Work
         rdf:about="">
        <dc:format>image/svg+xml</dc:format>
        <dc:type
           rdf:resource="http://purl.org/dc/dcmitype/StillImage" />
        <dc:title></dc:title>
      </cc:Work>
    </rdf:RDF>
  </metadata>
  <g
     inkscape:label="Capa 1"
     inkscape:groupmode="layer"
     id="layer1">
    <path
       id="path841"
       style="fill:#000000;stroke-width:1.48299;stroke-linecap:square;stroke-linejoin:round;fill-opacity:1"
       d="M 2.1044449,0.07972217 A 1.9889823,1.9889823 0 0 0 0.13783673,2.068641 1.9889823,1.9889823 0 0 0 0.17524443,2.4526327 l -0.0182537,0.022085 c 0.009134,0.00758 0.0183494,0.014188 0.0274917,0.021633 A 1.9889823,1.9889823 0 0 0 2.1269792,4.0575585 1.9889823,1.9889823 0 0 0 3.9540977,2.8544271 c 0.010001,-0.00683 0.02173,-0.013397 0.031323,-0.020281 L 3.970998,2.8138643 A 1.9889823,1.9889823 0 0 0 4.1158966,2.0686404 1.9889823,1.9889823 0 0 0 2.1269789,0.07972154 a 1.9889823,1.9889823 0 0 0 -0.022534,6.3e-7 z m 0.022535,0.23909436 a 1.749725,1.749725 0 0 1 0.4042737,0.0475485 C 2.4614765,0.61165041 2.4027076,0.85783354 2.366975,1.1039277 A 0.25277342,0.25277342 0 0 0 2.2232035,1.3279226 C 1.9159254,1.4605633 1.5872944,1.5401476 1.2343775,1.5631863 a 0.25277342,0.25277342 0 0 0 -0.071435,-0.09059 C 1.2677718,1.0602271 1.4539107,0.7096915 1.6796649,0.37718147 a 1.749725,1.749725 0 0 1 0.447315,-0.0583649 z M 2.7518689,0.4344198 A 1.749725,1.749725 0 0 1 3.1910716,0.68004909 C 3.0081163,0.85066401 2.817183,0.99899035 2.6166596,1.1224055 A 0.25277342,0.25277342 0 0 0 2.598858,1.1115915 C 2.6326973,0.8893283 2.6868971,0.6632163 2.7518687,0.43442524 Z M 1.3184328,0.51689724 C 1.1588742,0.79226298 1.0280102,1.0901227 0.94480658,1.4252725 A 0.25277342,0.25277342 0 0 0 0.77737337,1.561834 C 0.67480484,1.5549481 0.56973339,1.5422694 0.46323837,1.5266791 A 1.749725,1.749725 0 0 1 1.3184328,0.51689724 Z M 3.3648143,0.8323835 a 1.749725,1.749725 0 0 1 0.193348,0.2300799 C 3.1333891,1.267934 2.8239708,1.5281495 2.6011113,1.8081383 a 0.25277342,0.25277342 0 0 0 -0.027943,-0.00314 C 2.5656985,1.7270282 2.5627324,1.6482902 2.5630322,1.5690511 A 0.25277342,0.25277342 0 0 0 2.7284309,1.3322099 0.25277342,0.25277342 0 0 0 2.7282001,1.3184641 C 2.9520842,1.1829732 3.1642538,1.0202915 3.3648073,0.83238812 Z M 3.6787231,1.260544 A 1.749725,1.749725 0 0 1 3.8765777,2.068641 1.749725,1.749725 0 0 1 3.7553409,2.7084025 C 3.627951,2.785617 3.4677694,2.8604026 3.2818864,2.9222568 A 0.25277342,0.25277342 0 0 0 3.1009321,2.84609 0.25277342,0.25277342 0 0 0 2.997272,2.8683996 C 2.8474825,2.6752948 2.7439319,2.4793197 2.6752509,2.2802419 A 0.25277342,0.25277342 0 0 0 2.8097828,2.056922 0.25277342,0.25277342 0 0 0 2.7834177,1.9446996 C 2.9878871,1.6894767 3.275132,1.4517566 3.6787231,1.260544 Z M 2.3201026,1.5311862 a 0.25277342,0.25277342 0 0 0 0.010136,0.00744 c -0.00165,0.1243705 0.00403,0.248591 0.020281,0.3724989 A 0.25277342,0.25277342 0 0 0 2.3040986,2.0569247 0.25277342,0.25277342 0 0 0 2.3484916,2.19957 C 2.2354375,2.4181279 2.161144,2.6384917 2.1186422,2.8456436 c -0.00564,0.027517 -0.00851,0.053466 -0.01307,0.080449 A 0.25277342,0.25277342 0 0 0 1.9685624,3.044401 C 1.7441022,3.0158491 1.512195,2.9629148 1.2756182,2.8729108 A 0.25277342,0.25277342 0 0 0 1.0971423,2.662661 C 1.0665732,2.3884791 1.0650659,2.1391023 1.0879019,1.9095498 A 0.25277342,0.25277342 0 0 0 1.2278427,1.7910174 C 1.6165729,1.7663972 1.9804139,1.6776751 2.3201028,1.5311908 Z M 0.40645046,1.7504493 c 0.12775339,0.019008 0.25394573,0.03394 0.37723163,0.041013 a 0.25277342,0.25277342 0 0 0 0.0822513,0.089689 c -0.0253754,0.2468488 -0.026833,0.5122711 0.00384,0.8029129 C 0.71478444,2.5985644 0.55926535,2.4961812 0.40442348,2.3762389 A 1.749725,1.749725 0 0 1 0.37715778,2.0686401 1.749725,1.749725 0 0 1 0.40645258,1.7504483 Z M 2.4875356,2.4337038 c 0.08027,0.2039524 0.1921919,0.4047333 0.3470349,0.6003254 -0.1297552,0.021272 -0.2666489,0.033913 -0.4083295,0.037408 A 0.25277342,0.25277342 0 0 0 2.3342996,2.9558336 c 0.0036,-0.021383 0.00588,-0.041937 0.010364,-0.063774 0.030465,-0.1484984 0.076179,-0.3032249 0.1428672,-0.4583564 z M 0.50830848,2.7329653 C 0.59631958,2.7905073 0.6844306,2.844088 0.77264045,2.89206 a 0.25277342,0.25277342 0 0 0 -2.3063e-4,0.01262 0.25277342,0.25277342 0 0 0 0.16810906,0.2384183 c 0,0 2.308e-4,0 2.308e-4,0 0.016972,0.085754 0.037335,0.1742253 0.059266,0.2638821 A 1.749725,1.749725 0 0 1 0.50830848,2.7329653 Z M 3.568303,3.0601703 A 1.749725,1.749725 0 0 1 3.3923065,3.276729 C 3.3698165,3.257089 3.3453805,3.237599 3.3238005,3.217913 A 0.25277342,0.25277342 0 0 0 3.3499395,3.143099 C 3.4267775,3.117637 3.498799,3.089443 3.5683027,3.060169 Z m -2.3699813,0.028618 c 0.2615181,0.09936 0.5189011,0.1591674 0.7673086,0.1892924 a 0.25277342,0.25277342 0 0 0 0.096449,0.1032091 c -0.00248,0.178544 0.011074,0.3288733 0.025465,0.4367242 A 1.749725,1.749725 0 0 1 1.2934187,3.6068635 C 1.2432119,3.4346065 1.2010748,3.2695283 1.1685762,3.1129015 a 0.25277342,0.25277342 0 0 0 0.029745,-0.024113 z m 1.7043046,0.166307 a 0.25277342,0.25277342 0 0 0 0.1983058,0.096449 0.25277342,0.25277342 0 0 0 0.026816,-0.00158 c 0.029956,0.028298 0.060853,0.056427 0.092393,0.084507 A 1.749725,1.749725 0 0 1 2.3192014,3.8076454 C 2.3048427,3.7115551 2.2904042,3.5770082 2.2923853,3.3954852 a 0.25277342,0.25277342 0 0 0 0.1092935,-0.091718 c 0.1758603,-0.0026 0.3426518,-0.020924 0.500948,-0.048675 z" />
  </g>
</svg>
